<svg width="20" height="20" viewBox="0 0 20 20" fill="none" xmlns="http://www.w3.org/2000/svg">
<g clip-path="url(#clip0_4804_20119)">
<path d="M18.3207 6.32242C18.2112 6.20151 18.0419 6.13098 17.8726 6.13098H17.1854C15.8609 6.13098 14.7554 7.09824 14.5762 8.35768H12.435L9.1983 2.33249C9.08875 2.13098 8.87961 2 8.65056 2C4.7068 2 1.5 5.1335 1.5 8.98237C1.5 11.2292 2.60545 13.3249 4.47774 14.6348C4.02958 14.9975 3.77065 15.5214 3.77065 16.0957C3.77065 17.1436 4.64704 18 5.72261 18C6.79818 18 7.66462 17.1436 7.66462 16.0957C7.66462 16.0252 7.65466 15.9547 7.6447 15.8841C8.33187 15.9748 8.95929 15.9748 9.6365 15.8841C9.62654 15.9547 9.62654 16.0252 9.62654 16.0957C9.62654 17.1436 10.493 18 11.5685 18C12.6441 18 13.5105 17.1436 13.5105 16.0957C13.5105 15.5214 13.2516 14.9975 12.8134 14.6348C14.6857 13.3249 15.7912 11.2292 15.7912 8.97229V8.71033C15.7912 7.96474 16.4186 7.3602 17.1854 7.3602H17.8726C18.2211 7.3602 18.5 7.08816 18.5 6.74559C18.5 6.58438 18.4402 6.43325 18.3207 6.32242ZM8.28207 3.24937L11.0208 8.35768H2.78471C3.08348 5.5869 5.40392 3.42065 8.28207 3.24937ZM5.72261 16.7708C5.33421 16.7708 5.02548 16.4685 5.02548 16.0957C5.02548 15.7229 5.33421 15.4307 5.72261 15.4307C6.11101 15.4307 6.41974 15.7229 6.41974 16.0957C6.41974 16.4685 6.10105 16.7708 5.72261 16.7708ZM11.5785 16.7708C11.1901 16.7708 10.8814 16.4685 10.8814 16.0957C10.8814 15.7229 11.1901 15.4307 11.5785 15.4307C11.7677 15.4307 11.947 15.5013 12.0765 15.6322C12.196 15.7531 12.2657 15.9244 12.2657 16.0957C12.2657 16.4685 11.9569 16.7708 11.5785 16.7708ZM8.65056 14.7254C5.63298 14.7254 3.1034 12.4887 2.78471 9.59698H14.5064C14.1878 12.4887 11.6582 14.7254 8.65056 14.7254Z" fill="#333333"/>
</g>
<defs>
<clipPath id="clip0_4804_20119">
<rect width="17" height="16" fill="white" transform="translate(1.5 2)"/>
</clipPath>
</defs>
</svg>
