<svg width="20" height="20" viewBox="0 0 20 20" fill="none" xmlns="http://www.w3.org/2000/svg">
<g clip-path="url(#clip0_4804_20128)">
<path d="M17.1889 12.3653C17.2489 12.2557 17.2789 12.1462 17.2589 12.0167L16.7489 8.56093C16.6789 8.06298 16.4189 7.60486 16.0289 7.27622C15.6389 6.95753 15.1389 6.78823 14.6389 6.77827H13.9489V5.47364C13.9489 4.40803 13.5289 3.41213 12.7689 2.6652C11.9989 1.91828 10.9889 1.5 9.90891 1.5C8.82891 1.5 7.81891 1.91828 7.05891 2.6652C6.29891 3.41213 5.87891 4.40803 5.87891 5.47364V6.77827H5.44891C4.95891 6.77827 4.47891 6.95753 4.09891 7.26626C3.71891 7.57499 3.45891 8.01318 3.36891 8.49121L2.69891 12.0466C2.67891 12.176 2.69891 12.3155 2.75891 12.425C2.81891 12.5346 2.90891 12.6242 3.02891 12.6839C3.13891 12.7238 3.24891 12.7736 3.35891 12.8134L2.82891 16.0501C2.76891 16.3688 2.78891 16.6875 2.86891 16.9962C2.95891 17.3149 3.10891 17.5937 3.31891 17.8427C3.48891 18.0419 3.70891 18.2112 3.95891 18.3207C4.19891 18.4402 4.46891 18.5 4.73891 18.5H15.0689C15.3389 18.5 15.5989 18.4402 15.8389 18.3307C16.0789 18.2211 16.2889 18.0618 16.4589 17.8626C16.6789 17.6236 16.8289 17.3547 16.9289 17.046C17.0189 16.7472 17.0489 16.4285 17.0089 16.1198L16.5489 12.7636C16.6789 12.7138 16.8089 12.664 16.9289 12.6043C17.0389 12.5445 17.1189 12.4649 17.1789 12.3653H17.1889ZM3.98891 16.2294L4.48891 13.2118C6.08891 13.6898 7.74891 13.9487 9.45891 13.9687H10.3589C12.0789 13.9487 13.7789 13.6798 15.4189 13.1719L15.8489 16.2692C15.8689 16.4186 15.8589 16.568 15.8189 16.7074C15.7789 16.8568 15.7089 16.9862 15.6089 17.1057C15.5489 17.1755 15.4689 17.2352 15.3789 17.275C15.2889 17.3248 15.1889 17.3448 15.0889 17.3448H4.74891C4.64891 17.3448 4.54891 17.3248 4.45891 17.275C4.36891 17.2352 4.27891 17.1655 4.21891 17.0858C4.11891 16.9763 4.04891 16.8368 4.00891 16.6875C3.96891 16.5381 3.95891 16.3887 3.98891 16.2294ZM7.03891 5.47364C7.03891 4.71675 7.33891 4.00967 7.87891 3.48184C8.42891 2.94405 9.14891 2.65524 9.90891 2.65524C10.6689 2.65524 11.3989 2.94405 11.9389 3.48184C12.4789 4.00967 12.7789 4.71675 12.7789 5.47364V6.77827H7.03891V5.47364ZM4.51891 8.70035C4.55891 8.49121 4.67891 8.29203 4.84891 8.15261C5.01891 8.01318 5.22891 7.93351 5.44891 7.93351H14.6689C14.8989 7.93351 15.1189 8.01318 15.2989 8.16257C15.4689 8.31195 15.5789 8.51113 15.6189 8.73023L16.0589 11.7179C14.2789 12.4151 12.4089 12.7935 10.4989 12.8134V11.8872C10.4989 11.7378 10.4389 11.5885 10.3289 11.4789C10.0989 11.2598 9.71891 11.2598 9.49891 11.4789C9.38891 11.5885 9.32891 11.7279 9.32891 11.8872V12.8134C7.47891 12.7935 5.66891 12.4549 3.93891 11.8076L4.51891 8.70035Z" fill="#333333"/>
</g>
<defs>
<clipPath id="clip0_4804_20128">
<rect width="14.56" height="17" fill="white" transform="translate(2.69922 1.5)"/>
</clipPath>
</defs>
</svg>
