<svg width="16" height="17" viewBox="0 0 16 17" fill="none" xmlns="http://www.w3.org/2000/svg">
<g filter="url(#filter0_d_11255_74433)">
<path d="M9.51579 7.2176C9.56454 7.37031 9.50829 7.53792 9.37328 7.63103C9.30953 7.67573 9.23452 7.69808 9.15955 7.69808C9.0808 7.69808 8.99825 7.67201 8.93079 7.61986L8.90594 7.60105C8.37047 7.19578 7.63089 7.19579 7.09544 7.60107L7.07061 7.61986C6.93935 7.72043 6.76309 7.72415 6.62808 7.63103C6.49307 7.53792 6.43682 7.37031 6.48557 7.2176L6.53924 7.04396C6.72543 6.44155 6.51501 5.78701 6.01266 5.40594L5.89678 5.31804C5.76927 5.2212 5.72051 5.05732 5.76927 4.90461C5.82177 4.7519 5.96428 4.65133 6.12554 4.65133H6.17501C6.83244 4.65133 7.41326 4.22322 7.60782 3.59523L7.64065 3.48925C7.68941 3.33654 7.83567 3.22852 8.00068 3.22852C8.16569 3.22852 8.31195 3.33654 8.36071 3.48925L8.39354 3.59523C8.5881 4.22322 9.16892 4.65133 9.82635 4.65133H9.87582C10.0371 4.65133 10.1796 4.7519 10.2321 4.90461C10.2808 5.05732 10.2321 5.2212 10.1046 5.31804L9.9887 5.40594C9.48635 5.78701 9.27593 6.44155 9.46212 7.04396L9.51579 7.2176Z" fill="url(#paint0_linear_11255_74433)"/>
<path fill-rule="evenodd" clip-rule="evenodd" d="M2.5 5.46292C2.5 2.45285 4.9695 -1.08316e-07 8 0C11.0305 1.08316e-07 13.5 2.45285 13.5 5.46292C13.5 6.72485 13.0545 7.94309 12.268 8.90456C12.147 9.05211 12.015 9.19409 11.8775 9.33067C11.872 9.34159 11.861 9.35252 11.85 9.35798C11.795 9.41807 11.729 9.47817 11.6685 9.53279C11.322 9.83872 10.948 10.1009 10.541 10.3031C10.464 10.3468 10.3815 10.3851 10.299 10.4233C10.2166 10.467 10.134 10.4997 10.046 10.5325C10.0405 10.5352 10.0364 10.5366 10.0322 10.538L10.026 10.5401C10.0238 10.541 10.0213 10.542 10.0185 10.5434C9.969 10.5653 9.9195 10.5817 9.8645 10.5981C9.826 10.6199 9.7875 10.6308 9.749 10.6418C9.74624 10.6418 9.74347 10.6431 9.74071 10.6445C9.73796 10.6459 9.73522 10.6472 9.7325 10.6472C9.177 10.833 8.594 10.9258 8 10.9258C7.406 10.9258 6.823 10.833 6.2675 10.6472C6.26475 10.6472 6.262 10.6459 6.25925 10.6445C6.2565 10.6431 6.25375 10.6418 6.251 10.6418C6.2125 10.6308 6.174 10.6199 6.1355 10.5981C6.086 10.5817 6.0365 10.5653 5.987 10.5434C5.9815 10.5434 5.9705 10.538 5.965 10.5325C5.833 10.4833 5.7065 10.4287 5.5745 10.3632H5.569C5.481 10.3195 5.3985 10.2758 5.316 10.232C5.305 10.2266 5.294 10.2198 5.283 10.2129C5.272 10.2061 5.261 10.1993 5.25 10.1938C5.23075 10.1829 5.21287 10.1706 5.195 10.1583C5.17712 10.146 5.15925 10.1337 5.14 10.1228C4.854 9.95344 4.579 9.75131 4.3315 9.52733C4.31834 9.51424 4.30389 9.50114 4.28878 9.48745C4.27238 9.47258 4.25517 9.45698 4.238 9.43993C4.2105 9.41807 4.1775 9.39076 4.15 9.36345V9.35798L4.1225 9.33067C4.05108 9.25973 3.98493 9.19402 3.919 9.12308C3.0115 8.12882 2.5 6.81772 2.5 5.46292ZM4.24864 5.46276C4.24864 3.41044 5.93239 1.73804 7.99864 1.73804C10.0649 1.73804 11.7486 3.41044 11.7486 5.46276C11.7486 6.32317 11.4449 7.15378 10.9086 7.80933C10.8261 7.90994 10.7361 8.00674 10.6424 8.09986C10.6386 8.10731 10.6311 8.11476 10.6236 8.11848C10.5861 8.15945 10.5411 8.20043 10.4999 8.23767C10.2636 8.44626 10.0086 8.62504 9.73114 8.76286C9.67864 8.79266 9.62239 8.81877 9.56614 8.8448C9.50993 8.8746 9.45364 8.89695 9.39364 8.9193C9.38989 8.92116 9.38708 8.92209 9.38426 8.92302C9.38145 8.92395 9.37864 8.92488 9.37489 8.92675C9.34114 8.94165 9.30739 8.95282 9.26989 8.96399C9.24365 8.97889 9.2174 8.98634 9.19115 8.99379C9.19115 8.99379 9.18737 8.99473 9.18549 8.99566C9.18361 8.99659 9.17989 8.99752 9.17989 8.99752C8.80114 9.12416 8.40364 9.18748 7.99864 9.18748C7.59364 9.18748 7.19614 9.12416 6.81739 8.99752L6.81438 8.99686L6.81177 8.99566C6.80989 8.99472 6.80614 8.99379 6.80614 8.99379C6.7799 8.98634 6.75364 8.97889 6.72739 8.96399C6.69364 8.95282 6.65989 8.94165 6.62614 8.92675C6.62239 8.92675 6.61489 8.92302 6.61114 8.9193C6.52114 8.88577 6.43489 8.84853 6.34489 8.80383H6.34114C6.28114 8.77404 6.2249 8.74424 6.16865 8.71444C6.16115 8.71072 6.15364 8.70606 6.14614 8.7014C6.13864 8.69675 6.13114 8.69209 6.12364 8.68836C6.11052 8.68091 6.09833 8.67253 6.08614 8.66416C6.07395 8.65577 6.06177 8.64739 6.04864 8.63994C5.85364 8.52448 5.66614 8.38666 5.49739 8.23395C5.48841 8.22501 5.47856 8.21608 5.46824 8.20673C5.45706 8.1966 5.44534 8.18598 5.43364 8.17435C5.41489 8.15945 5.39239 8.14083 5.37364 8.12221V8.11848L5.35489 8.09986C5.30614 8.05144 5.26114 8.00674 5.21614 7.95832C4.59739 7.28042 4.24864 6.38649 4.24864 5.46276Z" fill="url(#paint1_linear_11255_74433)"/>
<path d="M5.1449 11.1547C6.03061 11.5381 7.00775 11.7404 8.00204 11.7404C8.99632 11.7404 9.97347 11.5381 10.8592 11.1547C11.3752 10.9418 12.002 11.3044 12.002 11.8844V15.4676C12.002 15.6539 11.8992 15.8243 11.7335 15.9201C11.642 15.9734 11.5335 16 11.4306 16C11.3449 16 11.2535 15.9787 11.1735 15.9414L10.7205 15.7308C8.98993 14.926 7.01415 14.926 5.28361 15.7308L4.83061 15.9414C4.65347 16.0266 4.44204 16.016 4.27061 15.9201C4.1049 15.8243 4.00204 15.6539 4.00204 15.4676L4.00204 11.8841C4.00204 11.3007 4.6258 10.9405 5.1449 11.1547Z" fill="url(#paint2_linear_11255_74433)"/>
</g>
<defs>
<filter id="filter0_d_11255_74433" x="2.5" y="0" width="11.6" height="16.35" filterUnits="userSpaceOnUse" color-interpolation-filters="sRGB">
<feFlood flood-opacity="0" result="BackgroundImageFix"/>
<feColorMatrix in="SourceAlpha" type="matrix" values="0 0 0 0 0 0 0 0 0 0 0 0 0 0 0 0 0 0 127 0" result="hardAlpha"/>
<feOffset dx="0.6" dy="0.35"/>
<feComposite in2="hardAlpha" operator="out"/>
<feColorMatrix type="matrix" values="0 0 0 0 0.945098 0 0 0 0 0.45098 0 0 0 0 0.054902 0 0 0 0.35 0"/>
<feBlend mode="normal" in2="BackgroundImageFix" result="effect1_dropShadow_11255_74433"/>
<feBlend mode="normal" in="SourceGraphic" in2="effect1_dropShadow_11255_74433" result="shape"/>
</filter>
<linearGradient id="paint0_linear_11255_74433" x1="11" y1="15.5" x2="13.1393" y2="2.9757" gradientUnits="userSpaceOnUse">
<stop stop-color="#F27A1A"/>
<stop offset="1" stop-color="#FFB454"/>
</linearGradient>
<linearGradient id="paint1_linear_11255_74433" x1="11" y1="15.5" x2="13.1393" y2="2.9757" gradientUnits="userSpaceOnUse">
<stop stop-color="#F27A1A"/>
<stop offset="1" stop-color="#FFB454"/>
</linearGradient>
<linearGradient id="paint2_linear_11255_74433" x1="11" y1="15.5" x2="13.1393" y2="2.9757" gradientUnits="userSpaceOnUse">
<stop stop-color="#F27A1A"/>
<stop offset="1" stop-color="#FFB454"/>
</linearGradient>
</defs>
</svg>
