<svg width="20" height="20" viewBox="0 0 20 20" fill="none" xmlns="http://www.w3.org/2000/svg">
<g clip-path="url(#clip0_4804_20169)">
<path d="M17.92 2.62C17.52 2.23 16.96 2 16.38 2H3.68C3.11 2 2.55 2.23 2.14 2.62C1.73 3.03 1.5 3.56 1.5 4.14V11.87C1.5 12.44 1.73 12.98 2.14 13.39C2.55 13.78 3.11 14.01 3.68 14.01H7.96L6.85 16.7H5.27C4.94 16.7 4.68 16.97 4.68 17.29C4.68 17.61 4.94 17.88 5.27 17.88H14.8C15.13 17.88 15.39 17.61 15.39 17.29C15.39 16.97 15.13 16.7 14.8 16.7H13.22L12.11 14.01H16.38C16.96 14.01 17.52 13.78 17.92 13.39C18.34 12.98 18.57 12.45 18.57 11.87V4.14C18.57 3.56 18.34 3.03 17.92 2.62ZM8.14 16.7L9.25 14.01H10.82L11.93 16.7H8.14ZM17.37 11.87C17.37 12.13 17.27 12.37 17.09 12.55C16.9 12.73 16.65 12.83 16.38 12.83H3.68C3.42 12.83 3.17 12.73 2.98 12.55C2.8 12.37 2.69 12.13 2.69 11.87V4.14C2.69 3.88 2.8 3.64 2.98 3.46C3.17 3.28 3.42 3.17 3.68 3.17H16.38C16.65 3.17 16.9 3.28 17.09 3.46C17.27 3.64 17.37 3.88 17.37 4.14V11.87Z" fill="#333333"/>
</g>
<defs>
<clipPath id="clip0_4804_20169">
<rect width="17.07" height="15.88" fill="white" transform="translate(1.5 2)"/>
</clipPath>
</defs>
</svg>
