<svg width="20" height="20" viewBox="0 0 20 20" fill="none" xmlns="http://www.w3.org/2000/svg">
<path d="M16.7658 17.5H3.48324C3.29034 17.5 3.125 17.3396 3.125 17.1525V15.5219C3.125 14.6398 3.95171 13.918 5.66025 13.3032C7.53413 12.6349 7.86482 12.127 7.86482 11.0578C7.86482 10.8172 7.8097 10.737 7.69948 10.5766C7.53413 10.336 7.31368 10.042 7.14833 9.21334C7.14833 9.15987 7.12078 9.15987 7.12078 9.15987C7.12078 9.15987 7.09322 9.13314 7.06566 9.13314C6.67986 8.94602 6.45941 8.70544 6.40429 7.87678C6.40429 7.47581 6.54208 7.2085 6.65231 7.07484C6.62475 6.91445 6.59719 6.7006 6.54208 6.43329C6.40429 5.68482 6.07361 3.67998 8.1955 2.85131C9.7387 2.2365 11.0339 2.53054 11.5024 2.95824C11.833 2.98497 12.522 3.06516 13.018 3.62652C13.8171 4.50865 13.5967 6.43329 13.4865 7.04811C13.6242 7.18177 13.762 7.42235 13.762 7.82331C13.7069 8.67871 13.4589 8.94602 13.1007 9.10641C13.0731 9.10641 13.0455 9.13314 13.0455 9.13314C13.0455 9.13314 13.0455 9.15987 13.018 9.1866C12.8527 9.98854 12.6322 10.3093 12.4669 10.5499C12.3566 10.7103 12.3015 10.7905 12.3015 11.0311C12.3015 12.1003 12.6322 12.6082 14.5061 13.2765C16.2146 13.8913 17.0413 14.613 17.0413 15.4952V17.1258C17.0964 17.3396 16.9587 17.5 16.7658 17.5Z" stroke="#333333" stroke-width="1.4"/>
</svg>
