<svg width="20" height="20" viewBox="0 0 20 20" fill="none" xmlns="http://www.w3.org/2000/svg">
<g clip-path="url(#clip0_4804_20122)">
<path d="M17.5169 7.61576C17.2508 7.31034 16.886 7.0936 16.4917 7.00493V5.67488C16.4917 4.69951 16.0974 3.7734 15.4073 3.08374C14.7073 2.38424 13.7905 2.00985 12.8047 2H7.19532C6.20949 2.00985 5.28281 2.39409 4.59273 3.08374C3.89279 3.78325 3.50832 4.69951 3.50832 5.68473V7.00493C3.11399 7.10345 2.74923 7.3202 2.48306 7.62562C2.17745 7.97044 2 8.42365 2 8.8867V15.5764C2 15.7241 2.05915 15.8719 2.16759 15.9704C2.26617 16.0788 2.41405 16.1379 2.56192 16.1379H3.50832V17.4286C3.50832 17.5764 3.56747 17.7241 3.67591 17.8325C3.78435 17.9409 3.92237 18 4.07024 18H5.53913C5.65742 18.0197 5.8053 17.9606 5.90388 17.8719C6.01232 17.7833 6.08133 17.665 6.10105 17.5369L6.36722 16.1379H13.6328L13.899 17.5567C13.9285 17.6847 13.9975 17.803 14.106 17.8818C14.2046 17.9606 14.3229 18 14.451 18H15.91C16.0579 18 16.2058 17.9409 16.3142 17.8325C16.4227 17.7241 16.4818 17.5862 16.4818 17.4286V16.1379H17.4282C17.586 16.1379 17.724 16.0788 17.8324 15.9704C17.9409 15.8719 18 15.7241 18 15.5764V8.8867C18 8.42365 17.8226 7.97044 17.5169 7.61576ZM4.65188 5.67488C4.65188 4.99507 4.91805 4.36453 5.40111 3.88177C5.87431 3.40887 6.5151 3.14286 7.19532 3.14286H12.8047C13.4849 3.14286 14.1257 3.40887 14.6087 3.89163C15.0918 4.36453 15.3481 5.00493 15.358 5.68473V7.07389C15.0129 7.20197 14.6975 7.42857 14.4806 7.72414C14.2243 8.04926 14.0764 8.46305 14.0764 8.8867V9.57635C13.9187 9.52709 13.7511 9.49754 13.5736 9.49754H6.42637C6.24892 9.49754 6.08133 9.52709 5.9236 9.57635V8.8867C5.9236 8.46305 5.78558 8.04926 5.52927 7.71429C5.30253 7.41872 4.99692 7.19212 4.65188 7.05419V5.67488ZM5.90388 11.3103V11.1626C5.90388 11.0246 5.96303 10.8966 6.05176 10.8079C6.15034 10.7192 6.26864 10.6601 6.40665 10.6601H13.5736C13.7116 10.6601 13.8398 10.7192 13.9285 10.8079C14.0271 10.9064 14.0764 11.0345 14.0764 11.1626V11.7241C14.0764 11.8522 14.0271 11.9803 13.9285 12.0788C13.8398 12.1675 13.7116 12.2167 13.5835 12.2266H6.42637C6.35736 12.2266 6.28836 12.2069 6.22921 12.1872C6.17006 12.1576 6.11091 12.1182 6.06161 12.069C6.01232 12.0197 5.98275 11.9704 5.95317 11.9015C5.93346 11.8424 5.90388 11.7044 5.90388 11.6355V11.3103ZM5.06593 16.8571H4.64202V16.1379H5.20394L5.06593 16.8571ZM15.358 16.8571H14.9341L14.7961 16.1379H15.358V16.8571ZM16.8663 15.0049H3.1337V8.8867C3.1337 8.66995 3.22243 8.46305 3.38016 8.30542C3.68577 8 4.23783 8 4.54344 8.30542C4.70117 8.46305 4.78004 8.66995 4.78004 8.8867V12.7685C4.78004 12.9261 4.83919 13.064 4.94763 13.1724C5.05607 13.2808 5.20394 13.3399 5.35182 13.3399H14.6482C14.7961 13.3399 14.9341 13.2808 15.0425 13.1724C15.151 13.064 15.2101 12.9261 15.2101 12.7685V8.8867C15.2101 8.66995 15.2988 8.46305 15.4566 8.30542C15.7622 8 16.3142 8 16.6198 8.30542C16.7776 8.46305 16.8663 8.66995 16.8663 8.8867V15.0049Z" fill="#333333"/>
</g>
<defs>
<clipPath id="clip0_4804_20122">
<rect width="16" height="16" fill="white" transform="translate(2 2)"/>
</clipPath>
</defs>
</svg>
