<svg width="20" height="20" viewBox="0 0 20 20" fill="none" xmlns="http://www.w3.org/2000/svg">
<path d="M17.272 16.382V17.0963C17.272 17.3137 17.0894 17.5 16.8764 17.5H3.12215C2.90914 17.5 2.72656 17.3137 2.72656 17.0963V16.382C2.72656 15.3882 3.5786 14.6118 5.37396 13.9286C6.62158 13.4627 7.16932 13.0901 7.41276 12.6553C5.40439 12.0963 4.91751 10.8851 4.79579 10.5124V10.4814V10.4503C4.79579 10.4193 4.79579 10.4193 4.79579 10.3882C4.76536 10.2329 4.82622 10.0776 4.94794 9.98447C5.0088 9.95342 6.10427 9.17702 6.10427 7.18944C6.10427 4.86025 6.56072 2.5 9.908 2.5C9.93843 2.5 9.93843 2.5 9.96886 2.5H9.99929H10.0297C10.0601 2.5 10.0601 2.5 10.0906 2.5C13.4379 2.5 13.8943 4.86025 13.8943 7.18944C13.8943 9.17702 14.9898 9.95342 15.0506 9.98447C15.1724 10.0776 15.2332 10.2329 15.2028 10.3882C15.2028 10.4193 15.2028 10.4193 15.2028 10.4503V10.4814V10.5124C15.0811 10.8851 14.5942 12.0963 12.5858 12.6553C12.8293 13.059 13.377 13.4627 14.6246 13.9286C16.42 14.5807 17.272 15.3882 17.272 16.382Z" stroke="#333333" stroke-width="1.4"/>
</svg>
