<svg width="20" height="20" viewBox="0 0 20 20" fill="none" xmlns="http://www.w3.org/2000/svg">
<g clip-path="url(#clip0_4804_20321)">
<path d="M15.9683 4.46014H15.9583C15.8583 3.78014 15.3383 3.24014 14.6483 3.12014C13.8683 2.98014 13.1283 2.98014 12.3583 3.12014C11.6583 3.23014 11.1483 3.79014 11.0483 4.46014C10.4683 8.67014 10.4683 12.9201 11.0483 17.1201C11.1483 17.8101 11.6783 18.3501 12.3583 18.4701C12.7383 18.5401 13.1283 18.5701 13.5083 18.5701C13.8883 18.5701 14.2683 18.5401 14.6483 18.4701H14.6583C15.3583 18.3601 15.8683 17.8001 15.9683 17.1301H15.9783C16.5583 12.9201 16.5583 8.67014 15.9783 4.47014L15.9683 4.46014ZM14.8883 16.9701C14.8583 17.1901 14.6883 17.3701 14.4683 17.4101C13.8283 17.5101 13.1883 17.5101 12.5483 17.4101C12.3283 17.3701 12.1583 17.1901 12.1283 16.9701C11.8783 15.0901 11.7383 13.1801 11.7183 11.2901H15.2983C15.2783 13.1801 15.1383 15.0901 14.8883 16.9701ZM11.7183 10.2201C11.7383 8.35014 11.8783 6.47014 12.1283 4.61014C12.1583 4.40014 12.3283 4.22014 12.5483 4.18014H12.5583C12.8683 4.12014 13.1883 4.09014 13.4983 4.09014H14.0983L14.4483 4.18014H14.4683C14.6883 4.22014 14.8583 4.40014 14.8883 4.61014C15.1383 6.47014 15.2783 8.35014 15.2983 10.2201H11.7183Z" fill="#333333"/>
<path d="M9.04953 10.4498C8.93953 10.3398 8.79953 10.2698 8.64953 10.2398V7.18981C8.64953 6.82981 8.40953 6.51981 8.05953 6.41981V5.17981C8.05953 4.25981 8.05953 3.73981 8.02953 3.40981C8.00953 3.23981 7.98953 3.10981 7.94953 2.97981C7.90953 2.84981 7.85953 2.73981 7.80953 2.63981H7.79953L7.39953 1.88981C7.29953 1.69981 7.11953 1.53981 6.85953 1.49981C6.66953 1.47981 6.43953 1.52981 6.26953 1.67981H6.25953C6.17953 1.75981 6.06953 1.84981 5.98953 1.92981C5.41953 2.41981 4.78953 2.94981 4.78953 3.95981V6.41981C4.45953 6.50981 4.19953 6.80981 4.19953 7.18981V10.2298C4.02953 10.2498 3.87953 10.3298 3.74953 10.4498C3.60953 10.5898 3.51953 10.7898 3.51953 10.9998C3.53953 13.0298 3.68953 15.0698 3.94953 17.0798H3.95953C4.05953 17.7698 4.57953 18.3098 5.26953 18.4298C5.64953 18.4998 6.03953 18.5298 6.41953 18.5298C6.79953 18.5298 7.17953 18.4998 7.54953 18.4298C8.23953 18.3198 8.75953 17.7598 8.86953 17.0898C9.14953 15.0698 9.27953 13.0298 9.29953 10.9998C9.29953 10.7898 9.20953 10.5898 9.06953 10.4498H9.04953ZM5.83953 3.95981C5.83953 3.71981 5.90953 3.53981 6.03953 3.36981C6.16953 3.18981 6.35953 3.01981 6.62953 2.78981L6.82953 3.14981C6.86953 3.22981 6.88953 3.26981 6.89953 3.31981C6.90953 3.36981 6.92953 3.43981 6.93953 3.56981C6.94953 3.82981 6.95953 4.28981 6.95953 5.21981V6.38981H5.83953V3.95981ZM5.24953 7.46981H7.56953V10.2198H5.24953V7.46981ZM7.76953 16.9398C7.73953 17.1598 7.56953 17.3398 7.34953 17.3798C6.70953 17.4798 6.06953 17.4798 5.42953 17.3698C5.20953 17.3398 5.03953 17.1498 5.00953 16.9398C4.74953 15.0798 4.61953 13.1798 4.59953 11.2898H8.17953C8.15953 13.1798 8.01953 15.0698 7.76953 16.9398Z" fill="#333333"/>
</g>
<defs>
<clipPath id="clip0_4804_20321">
<rect width="12.9" height="17.06" fill="white" transform="translate(3.5 1.5)"/>
</clipPath>
</defs>
</svg>
