<svg width="20" height="20" viewBox="0 0 20 20" fill="none" xmlns="http://www.w3.org/2000/svg">
<g clip-path="url(#clip0_4804_20158)">
<path d="M18.7606 11.1301C18.5806 10.8701 18.3306 10.6501 18.0406 10.5001C17.9906 10.4701 17.9406 10.4501 17.8906 10.4401C16.1306 10.1201 14.2006 9.64008 12.3406 8.61008C12.3106 8.58008 12.2806 8.57008 12.2406 8.55008C11.8006 8.30008 11.3706 8.02008 10.9406 7.70008C10.5006 7.37008 10.0606 7.00008 9.64063 6.60008C9.62063 6.57008 9.59063 6.54008 9.55063 6.51008C9.34063 6.30008 9.14063 6.09008 8.94063 5.87008L8.85063 5.56008C8.79063 5.37008 8.69063 5.20008 8.56063 5.04008C8.43063 4.89008 8.28063 4.76008 8.10063 4.67008C7.92063 4.58008 7.73063 4.52008 7.53063 4.51008C7.33063 4.49008 7.13063 4.52008 6.94063 4.58008C6.72063 4.66008 6.52063 4.78008 6.36063 4.94008C6.20063 5.10008 6.08063 5.30008 6.00063 5.51008L5.53063 6.87008C5.46063 7.06008 5.35063 7.23008 5.19063 7.36008C5.04063 7.49008 4.85063 7.58008 4.65063 7.61008L3.69063 7.76008C3.47063 7.80008 3.25063 7.77008 3.05063 7.68008C2.84063 7.58008 2.67063 7.43008 2.55063 7.23008C2.49063 7.14008 2.34063 7.01008 2.24063 6.97008C2.13063 6.92008 1.92063 6.90008 1.81063 6.93008C1.69063 6.96008 1.51063 7.08008 1.44063 7.17008C1.37063 7.26008 1.30063 7.45008 1.29063 7.56008L1.00063 13.1701C0.990626 13.5001 1.10063 13.8201 1.31063 14.0801C1.53063 14.3301 1.84063 14.4801 2.17063 14.5101L6.49063 14.8801C6.63063 14.8901 6.77063 14.8701 6.89063 14.8301C6.99063 14.8001 7.08063 14.7401 7.15063 14.6901L7.20063 14.7401C7.30063 14.8401 7.41063 14.9201 7.53063 14.9701C7.65063 15.0201 7.77063 15.0501 7.90063 15.0501C7.91063 15.0501 7.92063 15.0501 7.93063 15.0401L15.2306 14.8301C16.2706 14.8001 17.2906 14.4901 18.1806 13.9401C18.5006 13.7401 18.7606 13.4601 18.9206 13.1201C19.0806 12.7801 19.1406 12.4001 19.1006 12.0201C19.0606 11.7001 18.9406 11.3901 18.7606 11.1301ZM2.32063 8.50008C2.40063 8.56008 2.50063 8.61008 2.60063 8.65008C2.99063 8.84008 3.43063 8.89008 3.86063 8.83008L4.82063 8.67008C5.21063 8.61008 5.58063 8.44008 5.88063 8.19008C6.18063 7.93008 6.41063 7.60008 6.55063 7.23008L7.02063 5.86008C7.04063 5.80008 7.07063 5.75008 7.12063 5.70008C7.16063 5.66008 7.22063 5.62008 7.28063 5.60008C7.34063 5.58008 7.39063 5.57008 7.45063 5.58008C7.50063 5.58008 7.56063 5.60008 7.61063 5.63008C7.66063 5.65008 7.70063 5.69008 7.74063 5.73008C7.77063 5.77008 7.80063 5.82008 7.82063 5.88008L7.95063 6.30008C7.97063 6.37008 8.01063 6.44008 8.06063 6.50008C8.24063 6.71008 8.43063 6.91008 8.61063 7.10008L7.84063 9.36008C7.75063 9.64008 7.90063 9.95008 8.18063 10.0501C8.24063 10.0501 8.30063 10.0701 8.35063 10.0701C8.58063 10.0701 8.79063 9.93008 8.86063 9.71008L9.47063 7.90008C9.64063 8.05008 9.81063 8.19008 9.98063 8.32008L9.44063 9.87008C9.35063 10.1501 9.50063 10.4601 9.78063 10.5501C9.84063 10.5701 9.89063 10.5801 9.95063 10.5801C10.1806 10.5801 10.3806 10.4401 10.4606 10.2201L10.8906 8.98008C11.0406 9.09008 11.1906 9.19008 11.3506 9.27008L10.9706 10.3501C10.8806 10.6301 11.0206 10.9401 11.3006 11.0401C11.3606 11.0601 11.4206 11.0701 11.4806 11.0701C11.7006 11.0701 11.9106 10.9301 11.9906 10.7101L12.3106 9.81008C13.9206 10.6301 15.5506 11.0801 17.0906 11.3901L17.0706 11.4101C16.5006 11.9601 15.7406 12.2701 14.9406 12.2801L8.42063 12.4201L7.27063 11.9801C7.27063 11.9801 7.18063 11.9501 7.13063 11.9401L2.16063 11.4401L2.32063 8.50008ZM17.9506 12.6501C17.8706 12.8101 17.7606 12.9401 17.6106 13.0301C16.8806 13.4801 16.0506 13.7301 15.2006 13.7601L7.98063 14.0001L7.86063 13.8801C7.77063 13.7801 7.67063 13.7001 7.55063 13.6501C7.43063 13.6001 7.31063 13.5701 7.18063 13.5701H7.16063C7.04063 13.5701 6.92063 13.5901 6.81063 13.6401C6.70063 13.6801 6.61063 13.7301 6.53063 13.8101L2.26063 13.4401C2.26063 13.4401 2.16063 13.4101 2.13063 13.3701C2.09063 13.3301 2.07063 13.2801 2.07063 13.2301L2.11063 12.5101L6.95063 13.0101L8.13063 13.4601C8.20063 13.4901 8.26063 13.5001 8.33063 13.5001H8.34063L14.9706 13.3601C16.0306 13.3401 17.0506 12.9201 17.8106 12.1801L18.0006 12.0101C18.0006 12.0101 18.0206 12.1001 18.0306 12.1501C18.0506 12.3201 18.0206 12.5001 17.9506 12.6501Z" fill="#333333"/>
</g>
<defs>
<clipPath id="clip0_4804_20158">
<rect width="18.11" height="10.55" fill="white" transform="translate(1 4.5)"/>
</clipPath>
</defs>
</svg>
