<svg width="20" height="20" viewBox="0 0 20 20" fill="none" xmlns="http://www.w3.org/2000/svg">
<g clip-path="url(#clip0_4804_20330)">
<path d="M18.5486 8.67985C18.4786 8.16985 18.2286 7.69985 17.8286 7.36985C17.4486 7.03985 16.9586 6.85985 16.4486 6.85985H14.0386L13.2386 3.09985C13.1986 2.94985 13.0986 2.81985 12.9686 2.73985C12.8386 2.65985 12.6786 2.62985 12.5286 2.65985C12.3786 2.69985 12.2386 2.77985 12.1586 2.90985C12.0686 3.02985 12.0286 3.18985 12.0486 3.33985L12.8086 6.85985H7.2586L7.9986 3.43985H8.0186V3.33985C8.0386 3.18985 8.0086 3.02985 7.9186 2.90985C7.8286 2.77985 7.6986 2.69985 7.5486 2.65985C7.3886 2.62985 7.2386 2.65985 7.1086 2.73985C6.9686 2.81985 6.8786 2.94985 6.8386 3.10985L6.0186 6.85985H3.6186C3.1086 6.85985 2.6186 7.03985 2.2386 7.36985C1.8386 7.69985 1.5886 8.16985 1.5186 8.67985C1.4486 9.18985 1.5786 9.69985 1.8686 10.1298C2.1386 10.5198 2.5386 10.8098 2.9986 10.9398L4.4486 15.7698V15.7998C4.5986 16.2398 4.8786 16.6298 5.2586 16.8998C5.6486 17.1898 6.1086 17.3398 6.5886 17.3398H13.4786C13.9586 17.3298 14.4286 17.1798 14.7986 16.8998C15.1886 16.6198 15.4686 16.2198 15.6086 15.7698L17.0686 10.9398C17.5286 10.7998 17.9286 10.5198 18.1986 10.1298C18.4886 9.69985 18.6186 9.18985 18.5486 8.67985ZM13.4786 16.1398H6.5886C6.3686 16.1398 6.1586 16.0698 5.9786 15.9398C5.8086 15.8198 5.6786 15.6398 5.6186 15.4298L4.2886 11.0398H15.7686L14.4486 15.4298C14.3886 15.6398 14.2586 15.8198 14.0886 15.9398C13.9086 16.0698 13.6986 16.1398 13.4786 16.1398ZM17.0586 9.57985C16.8886 9.74985 16.6586 9.84985 16.4086 9.84985H3.6486C3.5286 9.84985 3.4186 9.81985 3.2986 9.77985C3.1886 9.72985 3.0886 9.66985 3.0086 9.57985C2.9186 9.49985 2.8586 9.39985 2.8086 9.28985C2.7586 9.17985 2.7386 9.06985 2.7386 8.94985C2.7386 8.82985 2.7586 8.71985 2.8086 8.60985C2.8586 8.49985 2.9186 8.39985 3.0086 8.31985C3.0886 8.23985 3.1886 8.16985 3.2986 8.12985C3.4186 8.07985 3.5286 8.05985 3.6486 8.05985H16.4086C16.6586 8.05985 16.8886 8.14985 17.0586 8.31985C17.2286 8.48985 17.3286 8.71985 17.3286 8.94985C17.3286 9.17985 17.2286 9.40985 17.0586 9.57985Z" fill="#333333"/>
</g>
<defs>
<clipPath id="clip0_4804_20330">
<rect width="17.07" height="14.69" fill="white" transform="translate(1.5 2.6499)"/>
</clipPath>
</defs>
</svg>
